<svg height="512pt" viewBox="0 -79 512.00079 512" width="512pt" xmlns="http://www.w3.org/2000/svg"><path d="m438.316406 237.855469 40.8125-10.9375c2.773438-.742188 4.417969-3.59375 3.675782-6.363281l-27.308594-101.90625c-.742188-2.769532-3.589844-4.417969-6.363282-3.671876l-36.707031 9.832032-7.480469-27.917969 37.171876-9.960937c17.933593-4.804688 36.371093 5.839843 41.175781 23.773437l27.554687 102.835937c4.804688 17.933594-5.839844 36.367188-23.773437 41.171876l-41.277344 11.0625zm0 0" fill="#90caf9"/><path d="m75.523438 191.917969-41.847657-11.214844c-2.839843-.761719-4.542969-3.625-3.800781-6.394531l27.304688-101.90625c.742187-2.773438 3.648437-4.402344 6.492187-3.640625l37.632813 10.085937 7.480468-27.921875-38.109375-10.210937c-18.386719-4.925782-37.1875 5.617187-41.996093 23.550781l-27.554688 102.835937c-4.804688 17.933594 6.207031 36.46875 24.59375 41.394532l42.324219 11.339844zm0 0" fill="#90caf9"/><path d="m196.941406 282.101562-137.847656-36.933593 22.585938-84.300781c2.757812-10.289063 4.242187-20.875 4.421874-31.527344l28.53125-106.484375c1.234376-4.605469 5.96875-7.335938 10.574219-6.101563l128.6875 34.480469c4.605469 1.234375 7.335938 5.96875 6.101563 10.574219l-28.53125 106.480468c-5.171875 9.3125-9.179688 19.226563-11.9375 29.515626zm0 0" fill="#e3f2fd"/><path d="m177.46875 307.496094-114.207031-30.601563c-6.527344-1.75-10.402344-8.457031-8.652344-14.988281l4.484375-16.738281 137.847656 36.933593-4.484375 16.742188c-1.75 6.527344-8.460937 10.402344-14.988281 8.652344zm0 0" fill="#90caf9"/><path d="m334.441406 354.3125 114.207032-30.605469c6.527343-1.746093 10.402343-8.457031 8.652343-14.988281l-4.484375-16.738281-137.847656 36.9375 4.484375 16.738281c1.75 6.53125 8.460937 10.402344 14.988281 8.65625zm0 0" fill="#90caf9"/><path d="m314.96875 328.917969 137.847656-36.9375-22.585937-84.296875c-2.757813-10.289063-4.242188-20.878906-4.421875-31.53125l-28.53125-106.480469c-1.234375-4.605469-5.96875-7.339844-10.570313-6.105469l-128.691406 34.480469c-4.601563 1.234375-7.335937 5.96875-6.101563 10.574219l28.53125 106.480468c5.171876 9.316407 9.179688 19.226563 11.9375 29.519532zm0 0" fill="#e3f2fd"/><path d="m430.230469 207.683594c-2.757813-10.292969-4.242188-20.878906-4.421875-31.53125l-2.605469-9.726563c-76.777344.597657-91.558594-29-161.574219-21.546875l18.816406 70.222656c5.171876 9.3125 9.179688 19.226563 11.9375 29.515626l22.585938 84.296874 137.851562-36.933593zm0 0" fill="#ffca28"/><path d="m410.800781 120.136719c-3.28125-.121094-6.441406-.300781-9.492187-.53125-4.941406-.371094-9.183594-3.425781-11.449219-7.835938-2.640625-5.144531-7.992187-8.664062-14.175781-8.664062-3.847656 0-7.375 1.363281-10.128906 3.632812-1.476563-8.320312-8.722657-14.644531-17.464844-14.644531-4.367188 0-8.367188 1.578125-11.457032 4.195312-5.214843 4.410157-12.03125 6.382813-18.710937 4.953126-14.925781-3.1875-31.515625-4.859376-53.738281-2.738282-7.636719.726563-12.796875 8.148438-10.8125 15.558594l8.257812 30.816406c70.015625-7.453125 84.796875 22.140625 161.574219 21.546875zm0 0" fill="#ffe082"/><path d="m94.027344 99.761719-7.925782 29.578125c-.179687 10.652344-1.664062 21.238281-4.421874 31.527344l-22.585938 84.300781 137.847656 36.933593 22.589844-84.296874c2.753906-10.289063 6.765625-20.203126 11.933594-29.515626l18.972656-70.804687c-26.867188 5.738281-38.648438 16.488281-82.792969 16.488281-38.800781 0-52.597656-8.304687-73.617187-14.210937zm0 0" fill="#ffca28"/><path d="m430.230469 207.683594c-2.757813-10.292969-4.242188-20.878906-4.421875-31.53125l-2.605469-9.726563c-14.21875.109375-26.304687-.816406-37.015625-2.351562.621094 7.972656 1.976562 15.875 4.046875 23.609375l8.769531 32.726562c7.632813 28.480469-9.269531 57.757813-37.75 65.386719l-53.964844 14.460937 7.679688 28.65625 137.851562-36.933593zm0 0" fill="#ffa000"/><path d="m201.398438 111.226562-9.929688 37.0625c-5.171875 9.316407-9.179688 19.226563-11.9375 29.519532-12.472656 46.554687-60.328125 74.183594-106.882812 61.707031l-11.234376-3.007813-2.320312 8.660157 137.847656 36.933593 22.589844-84.296874c2.757812-10.289063 6.765625-20.203126 11.9375-29.515626l18.96875-70.804687c-18.34375 3.917969-29.660156 10.167969-49.039062 13.742187zm0 0" fill="#ffa000"/><path d="m213.320312 66.484375c-5.324218 1.457031-11.058593-.296875-14.554687-4.574219-3.875-4.742187-9.773437-7.769531-16.375-7.769531-7.378906 0-13.863281 3.78125-17.644531 9.507813-2.558594-3.753907-6.867188-6.21875-11.75-6.21875-3.4375 0-6.589844 1.222656-9.046875 3.25-2.449219-8.585938-10.339844-14.882813-19.714844-14.882813-9.476563 0-17.433594 6.441406-19.789063 15.175781-.007812-.003906-.015624-.003906-.023437-.007812l-10.394531 38.796875c21.019531 5.90625 34.816406 14.210937 73.617187 14.210937 44.144531 0 55.925781-10.75 82.792969-16.488281l9.089844-33.921875c1.296875-4.839844-2.960938-9.34375-7.867188-8.339844-14.914062 3.046875-25.125 7.652344-38.339844 11.261719zm0 0" fill="#ffe082"/><path d="m146.375 268.554688-36.714844-9.839844 25.847656-96.460938c2.714844-10.140625 13.136719-16.15625 23.277344-13.441406 10.136719 2.71875 16.15625 13.140625 13.4375 23.277344zm0 0" fill="#ffa000"/><path d="m114.585938 240.328125-4.925782 18.386719 36.714844 9.839844 15.152344-56.550782c-12.199219 14.222656-28.71875 24.164063-46.941406 28.324219zm0 0" fill="#ff6f00"/><path d="m193.585938 177.816406-25.84375 96.460938 29.199218 7.824218 22.589844-84.296874c2.753906-10.289063 6.765625-20.203126 11.933594-29.515626l-14.601563-3.914062c-10.136719-2.714844-20.558593 3.300781-23.277343 13.441406zm0 0" fill="#ff6f00"/><g fill="#ffa000"><path d="m100.703125 133.25-14.601563-3.910156c-.179687 10.648437-1.664062 21.238281-4.421874 31.527344l-22.585938 84.296874 29.199219 7.824219 25.847656-96.460937c2.71875-10.136719-3.300781-20.558594-13.4375-23.277344zm0 0"/><path d="m365.535156 315.367188 36.714844-9.839844-25.847656-96.460938c-2.714844-10.140625-13.136719-16.15625-23.277344-13.4375-10.136719 2.714844-16.152344 13.136719-13.4375 23.277344zm0 0"/><path d="m318.324219 224.628906 25.847656 96.464844-29.203125 7.824219-22.589844-84.296875c-2.753906-10.292969-6.761718-20.203125-11.933594-29.519532l14.601563-3.910156c10.136719-2.71875 20.558594 3.300782 23.277344 13.4375zm0 0"/></g><path d="m411.207031 180.066406 14.601563-3.914062c.179687 10.652344 1.664062 21.238281 4.421875 31.53125l22.585937 84.296875-29.203125 7.824219-25.84375-96.464844c-2.71875-10.136719 3.300781-20.558594 13.4375-23.273438zm0 0" fill="#ff6f00"/><path d="m253.160156 31.519531c-3.46875 0-6.582031-2.417969-7.332031-5.945312l-3.5-16.519531c-.859375-4.050782 1.726563-8.03125 5.78125-8.890626 4.050781-.859374 8.03125 1.730469 8.890625 5.78125l3.503906 16.519532c.855469 4.050781-1.730468 8.03125-5.785156 8.890625-.523438.113281-1.046875.164062-1.558594.164062zm0 0" fill="#ef5350"/><path d="m300.042969 62.003906c-3.464844 0-6.582031-2.417968-7.328125-5.945312-.859375-4.050782 1.726562-8.035156 5.78125-8.894532l16.515625-3.5c4.054687-.859374 8.035156 1.730469 8.894531 5.78125.859375 4.050782-1.730469 8.03125-5.78125 8.890626l-16.519531 3.503906c-.523438.109375-1.046875.164062-1.5625.164062zm0 0" fill="#ef5350"/><path d="m282.914062 37.050781c-1.402343 0-2.820312-.390625-4.082031-1.210937-3.472656-2.257813-4.457031-6.902344-2.199219-10.375l9.207032-14.160156c2.257812-3.472657 6.902344-4.457032 10.375-2.199219 3.472656 2.257812 4.457031 6.902343 2.199218 10.375l-9.203124 14.15625c-1.4375 2.210937-3.84375 3.414062-6.296876 3.414062zm0 0" fill="#ef5350"/><path d="m91.128906 242.40625c-6.125-.292969-12.316406-1.238281-18.480468-2.890625l-11.234376-3.007813-2.320312 8.660157 29.199219 7.824219zm0 0" fill="#ff6f00"/><path d="m391.296875 264.644531c-6.945313 10.03125-17.335937 17.75-30.042969 21.152344l-3.398437.910156 7.679687 28.660157 18.359375-4.917969 18.359375-4.921875zm0 0" fill="#ff6f00"/><path d="m307.273438 300.253906 29.203124-7.824218 7.675782 28.65625-29.199219 7.824218zm0 0" fill="#ff6f00"/></svg>